<svg width="26" height="25" viewBox="0 0 26 25" fill="none" xmlns="http://www.w3.org/2000/svg">
<g clip-path="url(#clip0_1_97)">
<rect x="0.5" width="25" height="25" rx="12.5" fill="white"/>
<path d="M18.0996 15.2873L17.459 7.54399L9.69315 7.7892C9.61138 7.78104 9.52961 7.7904 9.45336 7.81662C9.3771 7.84285 9.30816 7.88535 9.25119 7.94123C9.19422 7.99711 9.15055 8.06508 9.12315 8.14052C9.09574 8.21597 9.08524 8.29714 9.09234 8.37854C9.09945 8.45993 9.124 8.53965 9.16433 8.6123C9.20467 8.68495 9.25984 8.74883 9.32612 8.79962C9.39241 8.85041 9.46825 8.88692 9.54851 8.90668C9.62878 8.92644 9.71159 8.92899 9.79135 8.91416L15.6115 8.73946L8.51948 16.6906C8.42115 16.8008 8.3727 16.9474 8.38478 17.0982C8.39685 17.2489 8.46847 17.3914 8.58387 17.4943C8.69927 17.5972 8.849 17.6522 9.00012 17.647C9.15125 17.6418 9.29138 17.577 9.38971 17.4668L16.4817 9.51566L16.9708 15.3178C16.9834 15.4686 17.0555 15.611 17.1713 15.7136C17.2871 15.8162 17.4371 15.8706 17.5883 15.8649C17.7395 15.8592 17.8794 15.7938 17.9774 15.6832C18.0754 15.5725 18.1233 15.4256 18.1107 15.2748L18.0996 15.2873Z" fill="#E7DBDB"/>
</g>
<defs>
<clipPath id="clip0_1_97">
<rect x="0.5" width="25" height="25" rx="12.5" fill="white"/>
</clipPath>
</defs>
</svg>
