<svg width="86" height="86" viewBox="0 0 86 86" fill="none" xmlns="http://www.w3.org/2000/svg">
<rect width="86" height="86" rx="43" fill="#05F292"/>
<path d="M30.0999 34.3998H38.6999" stroke="#E7DBDB" stroke-width="2" stroke-linecap="round" stroke-linejoin="round"/>
<path d="M64.5001 39.7749C64.5001 39.6094 64.5001 38.629 64.4958 38.5602C64.4184 37.483 63.496 36.6252 62.335 36.5542C62.2619 36.5499 62.1738 36.5499 61.9932 36.5499H56.3988C52.5589 36.5499 49.45 39.4374 49.45 43C49.45 46.5625 52.561 49.45 56.3945 49.45H61.991C62.1716 49.45 62.2598 49.45 62.335 49.4457C63.496 49.3748 64.4205 48.5169 64.4958 47.4397C64.5001 47.3709 64.5001 46.3905 64.5001 46.225" stroke="#E7DBDB" stroke-width="2" stroke-linecap="round"/>
<path d="M55.9 45.1499C57.0874 45.1499 58.05 44.1873 58.05 42.9999C58.05 41.8125 57.0874 40.8499 55.9 40.8499C54.7125 40.8499 53.7499 41.8125 53.7499 42.9999C53.7499 44.1873 54.7125 45.1499 55.9 45.1499Z" fill="#E7DBDB"/>
<path d="M45.1499 25.7998C53.2576 25.7998 57.3125 25.7998 59.8302 28.3196C61.5695 30.0569 62.1092 32.5251 62.2747 36.5499M38.6999 60.2H45.1499C53.2576 60.2 57.3125 60.2 59.8302 57.6802C61.5695 55.943 62.1092 53.4748 62.2747 49.45M36.5498 25.7998C29.8547 25.8213 26.305 26.032 24.0196 28.3196C21.4998 30.8373 21.4998 34.8922 21.4998 42.9999C21.4998 51.1076 21.4998 55.1626 24.0196 57.6802C25.4235 59.0863 27.3048 59.7077 30.0998 59.9807" stroke="#E7DBDB" stroke-width="2" stroke-linecap="round"/>
</svg>
